<svg width="129" height="34" viewBox="0 0 129 34" fill="none" xmlns="http://www.w3.org/2000/svg">
<path fill-rule="evenodd" clip-rule="evenodd" d="M32.3346 18.6754H44.9241C44.6902 15.7986 43.1456 13.0608 38.7932 13.0608C35.3766 13.0608 32.943 15.5665 32.3346 18.6754ZM32.2877 22.8054C32.9899 26.1 35.6574 28.4198 39.542 28.4198C42.2097 28.4198 44.6902 27.2133 46.0941 25.3108L50.2593 28.7448C47.9195 31.9002 43.7541 33.9418 38.7932 33.9418C31.1177 33.9418 25.7822 28.1416 25.7822 20.9492C25.7822 13.7105 31.1177 7.91028 38.7932 7.91028C46.6091 7.91028 51.1486 13.5249 51.1486 21.367C51.1486 21.8773 51.1019 22.3876 51.1019 22.8054H32.2877Z" fill="#00F059"/>
<path fill-rule="evenodd" clip-rule="evenodd" d="M57.3015 33.9419H50.1764L59.6291 20.8499L50.2714 8.37012H57.6816L63.334 15.858L68.9867 8.37012H76.3965L67.0393 20.8499L76.4917 33.9419H69.3191L63.334 26.4067L57.3015 33.9419Z" fill="#00F059"/>
<path fill-rule="evenodd" clip-rule="evenodd" d="M5.90922 33.9419V20.3822C5.90922 16.0524 7.7651 13.9474 11.5829 13.9474C15.3531 13.9474 17.1862 16.0524 17.1862 20.3822V33.9419H23.0957V19.0798C23.0957 12.5738 18.5766 8.37012 11.5829 8.37012C4.54655 8.37012 -6.10352e-05 12.5738 -6.10352e-05 19.0798V33.9419H5.90922Z" fill="#00F059"/>
<path fill-rule="evenodd" clip-rule="evenodd" d="M79.0037 0V25.3284C79.0037 25.3284 78.3748 33.9419 90.1153 33.9419H92.3965V28.6349H89.4658C89.4658 28.6349 85.6536 28.7877 85.6536 25.3284L85.6708 13.6238H92.3963V8.31681H85.6975V0H79.0037Z" fill="#00F059"/>
<path fill-rule="evenodd" clip-rule="evenodd" d="M123.091 8.37V21.9297C123.091 26.2595 121.235 28.3645 117.417 28.3645C113.647 28.3645 111.814 26.2595 111.814 21.9297V8.37H105.904V23.2321C105.904 29.7381 110.423 33.9418 117.417 33.9418C124.453 33.9418 129 29.7381 129 23.2321V8.37H123.091Z" fill="#00F059"/>
<path fill-rule="evenodd" clip-rule="evenodd" d="M95.6791 33.942H105.904V32.051H95.6791V33.942Z" fill="#00F059"/>
</svg>
