<svg fill="none" height="42" viewBox="0 0 137 42" width="137" xmlns="http://www.w3.org/2000/svg" xmlns:xlink="http://www.w3.org/1999/xlink"><linearGradient id="a" gradientUnits="userSpaceOnUse" x1="-.000001" x2="7.45993" y1="41.1" y2="-3.07702"><stop offset="0" stop-color="#0041c2"/><stop offset="1" stop-color="#8b42ff"/></linearGradient><clipPath id="b"><path d="m0 0h137v42h-137z"/></clipPath><mask id="c" height="42" maskUnits="userSpaceOnUse" width="137" x="0" y="0"><path d="m137 0h-137v41.1h137z" fill="#fff"/></mask><g clip-path="url(#b)"><g mask="url(#c)"><path d="m50.0041 14.7958-6.9211 18.084h-5.2956l-6.9622-18.084h6.0477l3.7647 11.8882 3.7648-11.8882zm17.276 8.5734c0-5.4272-3.0947-9.1899-8.6595-9.1899-6.4033 0-9.2617 4.2436-9.2617 9.7386 0 5.939 3.2612 9.5702 10.0446 9.5784 2.207 0 4.5538-.3638 6.619-1.4159l.4418-4.5806c-1.9357.896-4.0462 1.3481-6.1771 1.3234-2.6962 0-4.3731-.6309-4.969-2.9386h11.8263c.0698-.67.1397-1.8228.1356-2.5154zm-12.1077-.9843c.2115-2.3797 1.124-3.5736 3.3598-3.5675 1.9584 0 3.1153 1.2248 3.1502 3.5675zm23.0545-8.2056c-1.4343 0-3.1914.9206-4.0298 3.0578l-.3617-2.4413h-4.9277v18.086h5.7374v-11.7217c.596-1.4035 1.7878-2.1351 3.6044-2.1351.6329.0041 1.2536.1829 1.8451.411l.5671-4.3998c-.727-.4254-1.5923-.8692-2.4348-.8569zm17.6339-1.233h5.7372v-4.71219h-5.7372zm0 19.9335h5.7372v-18.084h-5.7372zm17.2262.6165c1.492-.0082 2.967-.3781 4.338-.97l.434-4.6813c-1.325.5713-2.758.857-4.2.8385-2.172 0-4.48-1.3234-4.48-4.7574 0-3.4339 2.135-4.6977 4.619-4.6977 1.272-.0246 2.536.1541 3.712.6412l.441-4.445c-1.497-.7007-3.159-1.2803-4.812-1.2474-6.091 0-9.835 3.9354-9.835 9.7428s3.698 9.5804 9.783 9.5763zm-24.8444-7.6117v-6.8617h5.0619l.3635-4.2271h-5.4254l.0206-6.57607s-5.111.01233-5.9179 3.54287c-.0847.3863-.1235.7788-.1196 1.1734v13.6801c0 4.3731 2.5911 6.7158 7.1414 6.7158 1.2654 0 2.5167-.1069 3.7338-.4542l.3921-4.5148c-.8854.261-1.8064.3781-2.7265.3493-1.823-.0349-2.5239-.9432-2.5239-2.8276zm48.4154-2.5154c0-5.4272-3.098-9.1899-8.662-9.1899-6.404 0-9.261 4.2436-9.261 9.7386 0 5.939 3.26 9.5702 10.044 9.5784 2.207 0 4.554-.3638 6.618-1.4159l.442-4.5806c-1.935.896-4.046 1.3481-6.176 1.3234-2.697 0-4.374-.6309-4.97-2.9386h11.827c.069-.67.141-1.8228.138-2.5154zm-12.109-.9843c.213-2.3797 1.122-3.5736 3.359-3.5675 1.958 0 3.114 1.2248 3.15 3.5675z" fill="#fff"/><path d="m23.604.244971c-.7215-.2835907-1.4941-.3308559-2.1702-.084255-.3187.117135-.7687.30414-1.1859.655545l-11.93003 9.925639c1.58248 1.9009 3.93963 3.0189 6.42023 3.0374l-5.72968 14.5411c-2.20518-6.4013-4.86041-14.1116-4.86041-14.1116l-1.40572 1.1692c-2.346957 1.9009-3.378634 5.1355-2.336681 8.1563l5.291971 15.3509c.30415.8754.97002 1.6193 1.90099 1.9851 1.68932.6658 3.59853-.1644 4.26433-1.8536l13.5948-34.50965c.6658-1.68921-.1644-3.596259-1.8537-4.262079z" fill="url(#a)"/></g></g></svg>